<svg width="70" height="72" viewBox="0 0 70 72" fill="none" xmlns="http://www.w3.org/2000/svg">
<circle cx="35" cy="36" r="35" fill="#609351"/>
<circle cx="35" cy="36" r="32" fill="#609351" stroke="white" stroke-width="4"/>
<path d="M34.592 53.336C32.352 53.336 30.336 52.952 28.544 52.184C26.752 51.384 25.344 50.264 24.32 48.824C23.296 47.384 22.784 45.704 22.784 43.784H28.64C28.768 45.224 29.328 46.408 30.32 47.336C31.344 48.264 32.768 48.728 34.592 48.728C36.48 48.728 37.952 48.28 39.008 47.384C40.064 46.456 40.592 45.272 40.592 43.832C40.592 42.712 40.256 41.8 39.584 41.096C38.944 40.392 38.128 39.848 37.136 39.464C36.176 39.08 34.832 38.664 33.104 38.216C30.928 37.64 29.152 37.064 27.776 36.488C26.432 35.88 25.28 34.952 24.32 33.704C23.36 32.456 22.88 30.792 22.88 28.712C22.88 26.792 23.36 25.112 24.32 23.672C25.28 22.232 26.624 21.128 28.352 20.36C30.08 19.592 32.08 19.208 34.352 19.208C37.584 19.208 40.224 20.024 42.272 21.656C44.352 23.256 45.504 25.464 45.728 28.28H39.68C39.584 27.064 39.008 26.024 37.952 25.16C36.896 24.296 35.504 23.864 33.776 23.864C32.208 23.864 30.928 24.264 29.936 25.064C28.944 25.864 28.448 27.016 28.448 28.52C28.448 29.544 28.752 30.392 29.36 31.064C30 31.704 30.8 32.216 31.76 32.6C32.72 32.984 34.032 33.4 35.696 33.848C37.904 34.456 39.696 35.064 41.072 35.672C42.48 36.28 43.664 37.224 44.624 38.504C45.616 39.752 46.112 41.432 46.112 43.544C46.112 45.24 45.648 46.84 44.72 48.344C43.824 49.848 42.496 51.064 40.736 51.992C39.008 52.888 36.96 53.336 34.592 53.336Z" fill="#EFF6FF"/>
</svg>
